<?xml version="1.0" encoding="UTF-8"?> <svg xmlns="http://www.w3.org/2000/svg" xmlns:xlink="http://www.w3.org/1999/xlink" width="360" zoomAndPan="magnify" viewBox="0 0 270 359.999987" height="480" preserveAspectRatio="xMidYMid meet" version="1.0"><path fill="#5f0000" d="M 223.363281 174.605469 C 223.433594 175.433594 223.261719 176.835938 223.011719 177.96875 C 222.414062 181.070312 220.382812 183.78125 216.996094 183.90625 C 212.714844 184.074219 209.386719 180.390625 208.863281 176.167969 C 208.53125 173.671875 209.117188 171.070312 210.394531 168.90625 C 212.84375 164.65625 217.988281 162.296875 222.777344 163.234375 C 230.875 164.636719 235.644531 173.914062 233.878906 181.703125 C 232.671875 187.949219 228.058594 193.238281 222.410156 196.058594 C 216.183594 199.242188 208.851562 199.605469 202.070312 198.285156 C 183.4375 194.894531 166.050781 178.609375 146.039062 183.472656 C 141.1875 184.5 136.621094 187.609375 132.960938 190.308594 C 132.242188 190.800781 131.847656 191.011719 131.789062 190.894531 C 131.730469 190.777344 132.03125 190.320312 132.675781 189.589844 C 134.566406 187.523438 136.65625 185.699219 139.59375 184.011719 C 149.96875 178.257812 162.453125 180.421875 172.984375 184.84375 C 187.792969 190.710938 203.570312 201.121094 219.738281 194.859375 C 227.949219 191.730469 234.1875 182.78125 231.5625 173.960938 C 230.238281 169.277344 226.382812 165.414062 221.5625 164.914062 C 213.34375 163.902344 206.824219 173.546875 211.980469 180.363281 C 213.640625 182.492188 216.757812 183.566406 219.25 182.320312 C 222.125 180.949219 222.675781 177.277344 223.363281 174.605469 Z M 223.363281 174.605469 " fill-opacity="1" fill-rule="nonzero"></path><path fill="#5f0000" d="M 249.507812 187.820312 C 249.492188 187.839844 249.476562 187.832031 249.460938 187.796875 C 249.410156 187.707031 249.402344 187.574219 249.371094 187.453125 C 249.257812 186.78125 249.085938 185.214844 249.558594 184.09375 C 250.453125 181.9375 253.238281 181.984375 254.605469 183.683594 C 256.425781 185.742188 256.304688 189.121094 255.011719 191.617188 C 252.722656 196.144531 247.433594 198.417969 242.535156 199.132812 C 238.210938 199.785156 233.761719 199.546875 229.433594 198.839844 C 213.414062 196.183594 199.28125 187.070312 183.261719 184.640625 C 175.554688 183.410156 167.554688 183.648438 159.917969 185.171875 C 156.003906 185.9375 152.203125 187.101562 148.453125 188.390625 C 146.820312 188.933594 145.542969 189.394531 144.136719 189.746094 C 143.523438 189.890625 143.167969 189.917969 143.113281 189.808594 C 143.050781 189.6875 143.382812 189.394531 144.0625 188.964844 C 144.394531 188.753906 144.8125 188.515625 145.300781 188.25 C 147.066406 187.277344 150.066406 185.953125 152.570312 185.085938 C 163.820312 181.144531 176.171875 180.625 187.789062 183.167969 C 205.199219 186.824219 221.289062 198.15625 239.554688 197.582031 C 244.554688 197.378906 250.242188 195.953125 253.199219 191.742188 C 254.539062 189.808594 255.089844 187.269531 254.128906 185.289062 C 253.484375 183.746094 251.339844 182.832031 250.269531 184.441406 C 249.585938 185.507812 249.714844 187.105469 249.511719 187.820312 Z M 249.507812 187.820312 " fill-opacity="1" fill-rule="nonzero"></path><path fill="#5f0000" d="M 46.707031 174.773438 C 47.460938 177.371094 48.070312 180.960938 50.914062 182.25 C 55.914062 184.34375 60.273438 179.085938 59.703125 174.191406 C 59.316406 168.574219 53.78125 164.175781 48.230469 165 C 40.214844 166.011719 36.136719 175.425781 38.566406 182.71875 C 40.222656 188.289062 44.851562 192.664062 50.183594 194.824219 C 66.28125 201.136719 82.023438 190.851562 96.78125 184.921875 C 107.609375 180.300781 120.59375 178.070312 131.15625 184.296875 C 133.984375 186.023438 135.988281 187.808594 137.773438 189.832031 C 138.234375 190.386719 138.441406 190.734375 138.386719 190.828125 C 138.320312 190.964844 137.789062 190.65625 136.828125 189.984375 C 136.414062 189.691406 135.917969 189.335938 135.347656 188.933594 C 132.171875 186.578125 127.703125 184.046875 123.46875 183.25 C 104.105469 179.011719 87.339844 194.109375 69.433594 197.984375 C 62.304688 199.625 54.503906 199.53125 47.867188 196.203125 C 38.703125 191.921875 32.828125 180.816406 37.382812 171.226562 C 39.429688 166.800781 43.632812 163.46875 48.421875 163.125 C 53.878906 162.617188 59.28125 166.417969 60.707031 171.722656 C 62.390625 177.007812 59.144531 183.835938 53.222656 183.789062 C 49.855469 183.753906 47.785156 181.136719 47.125 178.070312 C 46.847656 177.070312 46.628906 175.386719 46.703125 174.777344 Z M 46.707031 174.773438 " fill-opacity="1" fill-rule="nonzero"></path><path fill="#5f0000" d="M 20.574219 187.589844 C 20.277344 186.863281 20.308594 185.050781 19.363281 184.199219 C 17.910156 182.949219 16.015625 184.523438 15.679688 186.097656 C 15.039062 188.027344 15.972656 190.917969 17.5625 192.578125 C 20.507812 195.890625 25.359375 197.164062 29.742188 197.433594 C 46.089844 198.292969 60.777344 189.335938 76.007812 184.84375 C 87.234375 181.351562 99.390625 180.589844 110.882812 183.175781 C 116.179688 184.375 121.628906 186.226562 126.253906 188.976562 C 129.417969 191.066406 121.246094 188.128906 120.601562 187.953125 C 111.484375 184.835938 101.742188 183.300781 92.089844 184.0625 C 74.828125 185.054688 59.828125 194.757812 43.132812 198.257812 C 37.957031 199.3125 32.5625 199.785156 27.339844 198.976562 C 22.699219 198.273438 17.707031 196.175781 15.324219 192.035156 C 13.890625 189.621094 13.574219 186.273438 15.246094 184.097656 C 16.433594 182.394531 19.101562 181.988281 20.195312 183.972656 C 20.820312 185.113281 20.730469 186.863281 20.660156 187.398438 C 20.648438 187.464844 20.636719 187.519531 20.625 187.554688 C 20.609375 187.589844 20.597656 187.609375 20.578125 187.589844 Z M 20.574219 187.589844 " fill-opacity="1" fill-rule="nonzero"></path><path fill="#5f0000" d="M 135.042969 182.164062 C 134.238281 182.347656 133.082031 178.941406 132.730469 177.558594 C 131.566406 172.871094 129.597656 165.226562 132.4375 160.914062 C 133.726562 158.996094 136.042969 158.832031 137.445312 160.628906 C 138.226562 161.578125 138.679688 162.875 138.894531 164.121094 C 139.539062 167.808594 138.613281 172.535156 137.675781 176.390625 C 137.292969 177.742188 136.328125 181.964844 135.054688 182.164062 L 135.039062 182.164062 Z M 135.039062 160.167969 C 130.375 161.03125 132.652344 173.1875 133.671875 176.222656 C 135.339844 181.214844 136.765625 175.578125 137.183594 173.210938 C 137.746094 170.171875 138.273438 166.054688 137.546875 163.253906 C 137.066406 161.304688 136.074219 160.167969 135.0625 160.167969 L 135.035156 160.167969 Z M 135.039062 160.167969 " fill-opacity="1" fill-rule="nonzero"></path><path fill="#5f0000" d="M 136.765625 181.996094 C 135.480469 180.546875 137.261719 175.921875 138.277344 173.78125 C 139.414062 171.542969 140.710938 169.589844 142.835938 168.507812 C 144.171875 167.835938 145.894531 167.820312 146.972656 168.914062 C 148.285156 170.277344 148.164062 172.273438 147.359375 174.089844 C 146.121094 176.941406 142.722656 179.859375 140.175781 181.304688 C 138.5625 182.222656 137.359375 182.519531 136.78125 182.007812 L 136.761719 181.992188 Z M 144.804688 168.90625 C 142.519531 168.828125 140.3125 171.554688 139.3125 173.730469 C 137.855469 176.542969 137.09375 181.660156 141.738281 179.078125 C 144.023438 177.742188 146.679688 174.917969 146.996094 171.996094 C 147.183594 170.542969 146.429688 168.957031 144.839844 168.90625 Z M 144.804688 168.90625 " fill-opacity="1" fill-rule="nonzero"></path><path fill="#5f0000" d="M 133.320312 182.007812 C 132.742188 182.523438 131.539062 182.222656 129.921875 181.304688 C 127.375 179.863281 123.976562 176.941406 122.738281 174.089844 C 121.9375 172.273438 121.8125 170.277344 123.128906 168.914062 C 124.207031 167.824219 125.929688 167.835938 127.269531 168.511719 C 129.394531 169.59375 130.6875 171.542969 131.824219 173.785156 C 132.84375 175.9375 134.621094 180.53125 133.335938 181.996094 L 133.320312 182.011719 Z M 125.261719 168.90625 C 123.671875 168.957031 122.917969 170.542969 123.105469 171.996094 C 123.421875 174.917969 126.074219 177.742188 128.359375 179.078125 C 133.003906 181.65625 132.246094 176.542969 130.785156 173.730469 C 129.789062 171.558594 127.578125 168.824219 125.296875 168.90625 L 125.257812 168.90625 Z M 125.261719 168.90625 " fill-opacity="1" fill-rule="nonzero"></path></svg> 