<?xml version="1.0" encoding="UTF-8" standalone="no"?>
<!-- Created with Inkscape (http://www.inkscape.org/) -->

<svg
   width="210mm"
   height="297mm"
   viewBox="0 0 210 297"
   version="1.1"
   id="svg1"
   xml:space="preserve"
   inkscape:version="1.4.2 (ebf0e940, 2025-05-08)"
   sodipodi:docname="ringe-1.svg"
   xmlns:inkscape="http://www.inkscape.org/namespaces/inkscape"
   xmlns:sodipodi="http://sodipodi.sourceforge.net/DTD/sodipodi-0.dtd"
   xmlns="http://www.w3.org/2000/svg"
   xmlns:svg="http://www.w3.org/2000/svg"><sodipodi:namedview
     id="namedview1"
     pagecolor="#ffffff"
     bordercolor="#000000"
     borderopacity="0.25"
     inkscape:showpageshadow="2"
     inkscape:pageopacity="0.0"
     inkscape:pagecheckerboard="0"
     inkscape:deskcolor="#d1d1d1"
     inkscape:document-units="mm"
     inkscape:zoom="0.72329015"
     inkscape:cx="430.67087"
     inkscape:cy="653.26481"
     inkscape:window-width="1472"
     inkscape:window-height="920"
     inkscape:window-x="0"
     inkscape:window-y="36"
     inkscape:window-maximized="0"
     inkscape:current-layer="layer1" /><defs
     id="defs1" /><g
     inkscape:label="Ebene 1"
     inkscape:groupmode="layer"
     id="layer1"><path
       style="fill:#000000"
       d="m 53.511125,185.67633 c -1.348158,-0.34413 -3.119215,-0.90526 -3.935684,-1.24697 -0.816468,-0.3417 -2.461072,-1.18334 -3.654676,-1.87031 -1.464401,-0.84283 -3.014845,-2.0899 -4.767376,-3.83456 -1.428454,-1.42204 -3.023644,-3.25913 -3.544869,-4.08242 -0.521224,-0.82328 -1.329722,-2.35419 -1.796661,-3.402 -0.466939,-1.04782 -1.040317,-2.84913 -1.274174,-4.0029 -0.233856,-1.15378 -0.425193,-3.08788 -0.425193,-4.29801 0,-1.21013 0.18794,-3.11257 0.417644,-4.22765 0.229705,-1.11507 0.753623,-2.85514 1.164264,-3.86681 0.410641,-1.01167 1.301026,-2.69671 1.978633,-3.74453 0.677606,-1.04782 2.393572,-3.19108 3.813257,-4.76281 1.419684,-1.57173 3.486514,-3.66481 4.592954,-4.65129 1.10644,-0.98647 3.045243,-2.62059 4.308451,-3.63138 1.263208,-1.01078 3.461762,-2.60784 4.885676,-3.54903 1.423914,-0.94119 3.932495,-2.45208 5.574625,-3.35753 1.64213,-0.90546 4.512465,-2.31274 6.378522,-3.12729 1.866056,-0.81455 4.919604,-1.97464 6.785661,-2.57798 1.866056,-0.60335 4.098897,-1.25184 4.961869,-1.4411 l 1.569038,-0.3441 1.27649,-2.15175 c 0.702069,-1.18345 2.030549,-3.10792 2.952176,-4.27661 0.921628,-1.16868 2.421857,-2.73026 3.333845,-3.47018 0.91198,-0.73991 2.58139,-1.80304 3.70979,-2.3625 1.1284,-0.55946 2.98907,-1.25999 4.13483,-1.55674 1.16961,-0.30292 3.27354,-0.57933 4.797463,-0.63027 1.49285,-0.0499 3.63033,0.0161 4.74997,0.14659 1.11963,0.13052 3.13497,0.49712 4.47853,0.81468 1.34356,0.31755 3.60319,0.97463 5.02139,1.46017 1.41821,0.48554 3.37248,1.22033 4.34283,1.63287 0.97035,0.41253 2.93685,1.33999 4.37001,2.06101 1.43316,0.72101 3.81493,2.01068 5.29282,2.86593 1.47789,0.85524 3.96956,2.41712 5.53705,3.47084 1.56748,1.05373 4.6821,3.2904 6.92137,4.97039 2.23927,1.68 5.41496,4.27474 7.05709,5.7661 1.64213,1.49136 3.78769,3.61502 4.76791,4.71924 0.98021,1.10422 2.54452,2.97369 3.47624,4.15438 0.93172,1.18069 2.09009,2.77283 2.57416,3.53809 0.48408,0.76526 1.33001,2.20365 1.87985,3.19644 0.54985,0.99278 1.38122,2.7604 1.84751,3.92803 0.46628,1.16764 1.1424,3.2947 1.50249,4.7268 0.50852,2.02241 0.65598,3.33308 0.66039,5.86975 0.005,2.6123 -0.1316,3.80674 -0.6803,5.96811 -0.37729,1.4862 -1.23493,3.81317 -1.90586,5.17106 -0.67094,1.35788 -1.83449,3.23261 -2.58568,4.16608 -0.75119,0.93346 -2.12748,2.30778 -3.05842,3.05403 -0.93095,0.74626 -2.6087,1.83767 -3.72833,2.42535 -1.11963,0.58768 -3.01283,1.37504 -4.20711,1.74968 -1.19428,0.37464 -3.37988,0.83319 -4.8569,1.019 -1.69299,0.21298 -3.79957,0.27003 -5.69996,0.15437 -1.65795,-0.1009 -4.23081,-0.43194 -5.71746,-0.73565 -1.48664,-0.30371 -4.05162,-0.98671 -5.69995,-1.51777 -1.64833,-0.53107 -4.34052,-1.51787 -5.98265,-2.19289 -1.64213,-0.67502 -4.40663,-1.94139 -6.14333,-2.81416 -1.7367,-0.87277 -4.24061,-2.22565 -5.56424,-3.0064 -1.32363,-0.78075 -3.47374,-2.13623 -4.778,-3.01217 l -2.3714,-1.59262 -1.97143,1.44641 c -1.084283,0.79553 -2.864503,2.02991 -3.956043,2.74307 -1.09153,0.71317 -3.23219,1.95876 -4.75701,2.76799 -1.52483,0.80923 -4.068111,2.01564 -5.651746,2.68092 -1.583635,0.66528 -4.20651,1.63784 -5.828612,2.16124 -1.622102,0.52339 -4.353908,1.2644 -6.07068,1.64667 -1.716773,0.38227 -4.562827,0.8833 -6.324567,1.11339 -1.803598,0.23556 -5.064957,0.40897 -7.464227,0.39687 -3.504773,-0.0177 -4.696125,-0.13254 -6.71226,-0.64717 z m 16.293944,-2.02475 c 1.791414,-0.30529 4.783891,-0.97632 6.649947,-1.49119 1.866057,-0.51486 4.720779,-1.43672 6.343826,-2.04856 1.623047,-0.61184 4.554453,-1.91681 6.514235,-2.89994 1.95978,-0.98313 5.27322,-2.93569 7.36321,-4.33903 2.08998,-1.40334 5.025053,-3.58561 6.522373,-4.84949 1.49731,-1.26387 3.7647,-3.33605 5.03864,-4.60484 1.27394,-1.26878 2.94119,-3.14363 3.70501,-4.16632 0.76382,-1.02269 1.90159,-2.75816 2.52837,-3.85659 0.62678,-1.09844 1.50711,-3.0654 1.9563,-4.37102 0.56382,-1.63886 0.8563,-3.09016 0.9446,-4.68724 0.0906,-1.63977 -0.004,-2.82848 -0.32664,-4.08241 -0.25,-0.97298 -0.92433,-2.74997 -1.49852,-3.94888 -0.57419,-1.1989 -1.57083,-2.77998 -2.21476,-3.5135 -0.83954,-0.95635 -1.73367,-1.59089 -3.1603,-2.24279 -1.09424,-0.50001 -2.1049,-0.9091 -2.24591,-0.9091 -0.14102,0 -0.25639,0.74386 -0.25639,1.65302 0,1.05008 -0.25398,2.41504 -0.69631,3.74221 -0.38297,1.14905 -1.00986,2.64031 -1.39309,3.31391 -0.38324,0.6736 -1.34566,2.09981 -2.13872,3.16936 -0.79306,1.06955 -2.27311,2.786 -3.28901,3.81434 -1.015893,1.02833 -2.885293,2.7329 -4.154213,3.78791 -1.26892,1.05502 -3.16211,2.52878 -4.20711,3.27501 -1.04499,0.74624 -3.36568,2.28131 -5.157099,3.41127 -1.791415,1.12997 -5.089246,3.04408 -7.328514,4.25359 -2.239268,1.20951 -5.720312,2.92849 -7.735653,3.81994 -2.015342,0.89145 -5.068889,2.0755 -6.785661,2.63121 -1.716773,0.55571 -4.342823,1.26079 -5.835669,1.56683 -1.914544,0.3925 -3.793886,0.55995 -6.378521,0.56833 -2.57959,0.008 -4.221485,-0.12605 -5.546704,-0.45406 -1.035346,-0.25627 -2.681839,-0.86047 -3.658873,-1.34268 -0.977035,-0.4822 -2.549658,-1.60195 -3.494718,-2.48833 -1.039266,-0.97474 -2.143805,-2.3729 -2.795065,-3.53809 l -1.076775,-1.92649 0.0506,2.17728 c 0.02783,1.19751 0.22835,2.97336 0.445601,3.94633 0.217252,0.97298 0.805742,2.66803 1.307755,3.76678 0.502014,1.09876 1.455765,2.76076 2.119446,3.69334 0.663681,0.93259 1.951454,2.38699 2.861718,3.23201 0.910263,0.84503 2.188824,1.90467 2.841246,2.35476 0.652423,0.45009 2.024089,1.23488 3.048148,1.74398 1.024058,0.50909 2.486433,1.12909 3.249722,1.37777 0.763289,0.24868 2.16792,0.63027 3.121404,0.84798 1.292929,0.29522 2.97553,0.36694 6.619283,0.28215 3.179048,-0.074 6.023427,-0.30759 8.142793,-0.66876 z M 58.812298,181.9882 c -0.970349,-0.13379 -2.92462,-0.50741 -4.342823,-0.83027 -1.418203,-0.32286 -3.554258,-0.96139 -4.746788,-1.41895 -1.19253,-0.45756 -2.841446,-1.19565 -3.664257,-1.64021 -0.822811,-0.44456 -1.612055,-0.91429 -1.753875,-1.04385 -0.162856,-0.14877 -0.162856,-0.23452 0,-0.23274 0.14182,0.002 1.601416,0.23764 3.243546,0.52464 1.64213,0.28701 4.756748,0.66851 6.921374,0.84779 2.296373,0.19018 5.292354,0.25043 7.192801,0.14463 1.791414,-0.0997 4.634341,-0.36219 6.317614,-0.58323 1.683274,-0.22105 4.675751,-0.81845 6.649948,-1.32757 1.974198,-0.50912 4.505515,-1.25472 5.625149,-1.65689 1.119634,-0.40217 3.501401,-1.43163 5.292815,-2.28769 1.791415,-0.85607 4.374795,-2.25147 5.740835,-3.1009 1.36605,-0.84942 3.62567,-2.42741 5.02139,-3.50663 1.39572,-1.07922 3.700423,-3.13467 5.121563,-4.56765 1.42114,-1.43299 3.39697,-3.69173 4.39073,-5.01942 0.99375,-1.32769 2.48019,-3.71347 3.30318,-5.30173 0.82299,-1.58826 1.86137,-3.98851 2.30753,-5.33388 0.44615,-1.34538 0.99424,-3.3455 1.21797,-4.44471 0.22373,-1.09921 0.46614,-2.05808 0.53868,-2.13083 0.0725,-0.0727 0.28022,0.58167 0.46149,1.45425 0.19889,0.95738 0.27499,2.66744 0.19191,4.31238 -0.10863,2.15083 -0.34184,3.33769 -1.10548,5.62597 -0.5323,1.59505 -1.35569,3.67516 -1.82975,4.62246 -0.47407,0.94731 -1.53417,2.76339 -2.35577,4.03574 -0.86403,1.33804 -2.59525,3.40832 -4.10626,4.91047 -1.43684,1.42841 -4.01706,3.64248 -5.733833,4.92017 -1.71678,1.27768 -3.85426,2.79349 -4.74996,3.36847 -0.89571,0.57497 -2.61504,1.61918 -3.82073,2.32046 -1.20568,0.70128 -3.445049,1.85091 -4.976361,2.55473 -1.531311,0.70383 -3.755223,1.63868 -4.942027,2.07746 -1.186805,0.43877 -3.122289,1.04468 -4.301076,1.34647 -1.178787,0.30178 -3.098362,0.73939 -4.26572,0.97245 -1.193199,0.23823 -4.083287,0.46931 -6.601007,0.52781 -2.463195,0.0572 -5.272458,-0.005 -6.242808,-0.1392 z m 84.082882,0.96054 c 0.93773,-0.22642 2.17338,-0.6513 2.74588,-0.94416 0.57251,-0.29286 1.43501,-0.86497 1.91667,-1.27136 0.48166,-0.40638 1.17132,-1.20836 1.53257,-1.78217 0.36125,-0.57381 0.83846,-1.74256 1.06048,-2.59723 0.22201,-0.85467 0.39795,-2.17119 0.39099,-2.92561 -0.007,-0.75441 -0.16064,-2.16773 -0.34148,-3.14071 l -0.32881,-1.76904 -1.77961,0.0902 c -1.1478,0.0582 -2.64067,-0.11243 -4.20492,-0.4806 -1.33391,-0.31395 -3.58565,-0.94878 -5.00385,-1.41073 -1.4182,-0.46194 -4.10533,-1.45511 -5.97138,-2.20704 -1.86606,-0.75192 -5.3471,-2.32834 -7.73566,-3.50314 -2.38855,-1.1748 -5.25888,-2.748 -6.37852,-3.49598 -1.11963,-0.74799 -2.10439,-1.3636 -2.18836,-1.36802 -0.084,-0.004 -0.92328,1.17214 -1.86515,2.61458 -1.06881,1.63686 -2.79679,3.71537 -4.5973,5.52989 -1.58664,1.599 -3.61766,3.54491 -4.51337,4.32424 l -1.62856,1.41696 0.77897,0.60561 c 0.42844,0.33308 2.07735,1.43736 3.66426,2.45395 1.58691,1.01658 5.08384,2.9379 7.77096,4.26959 2.68712,1.33169 6.1071,2.8721 7.59994,3.42314 1.49285,0.55103 3.6914,1.2992 4.88568,1.6626 1.19427,0.3634 3.08747,0.76977 4.20711,0.90305 1.11963,0.13328 3.44033,0.19087 5.1571,0.12798 1.71677,-0.0629 3.88864,-0.2996 4.82636,-0.52603 z m -8.21919,-0.61651 c -0.44785,-0.0451 -2.08701,-0.33485 -3.64256,-0.64382 -1.55555,-0.30897 -4.36482,-1.089 -6.24281,-1.73341 -1.87799,-0.64441 -4.50763,-1.63602 -5.84365,-2.20359 -1.33602,-0.56757 -3.96207,-1.82014 -5.83567,-2.78348 -1.8736,-0.96335 -4.5074,-2.43566 -5.85289,-3.2718 l -2.44635,-1.52025 2.27897,-2.18952 c 1.25344,-1.20423 3.33921,-3.41423 4.63506,-4.91112 1.29584,-1.49688 2.88207,-3.42582 3.52496,-4.28653 0.64288,-0.86071 1.208,-1.56492 1.25581,-1.56492 0.0478,0 -0.21735,0.88792 -0.58926,1.97316 -0.3719,1.08524 -0.91341,2.95295 -1.20334,4.15045 -0.28994,1.19751 -0.52802,2.92092 -0.52907,3.82981 -0.001,0.90889 0.1826,2.19485 0.4081,2.85769 0.2255,0.66284 0.86953,1.81441 1.43117,2.55905 0.56164,0.74464 1.70737,1.90813 2.54607,2.58553 0.83869,0.6774 2.48483,1.74093 3.65808,2.36339 1.17325,0.62246 3.22163,1.51392 4.55197,1.98102 1.33034,0.46709 3.9516,1.15508 5.82502,1.52885 1.87342,0.37378 4.51029,0.76335 5.85971,0.86572 l 2.45349,0.18613 -1.22142,0.19802 c -0.67178,0.10892 -1.8932,0.1786 -2.71427,0.15485 -0.82106,-0.0237 -1.85927,-0.0801 -2.30712,-0.12523 z m -18.04986,-25.51668 c 0,-0.0748 0.0611,-0.13608 0.13571,-0.13608 0.0747,0 0.13572,0.0612 0.13572,0.13608 0,0.0748 -0.0611,0.13608 -0.13572,0.13608 -0.0746,0 -0.13571,-0.0612 -0.13571,-0.13608 z m 33.3153,25.85524 c 0.93177,-0.33613 2.37763,-1.02476 3.21303,-1.53028 0.8354,-0.50553 2.13234,-1.4426 2.8821,-2.08238 0.74976,-0.63979 1.84539,-1.74204 2.43473,-2.44945 0.58934,-0.70741 1.49424,-2.03685 2.01088,-2.9543 0.51663,-0.91745 1.22712,-2.51651 1.57886,-3.55345 0.35173,-1.03694 0.79475,-2.75632 0.98448,-3.82084 0.21798,-1.22305 0.28924,-3.02066 0.1936,-4.88354 -0.10292,-2.00452 -0.37738,-3.71573 -0.85757,-5.34668 -0.38841,-1.31926 -1.02145,-3.15634 -1.40675,-4.08241 -0.3853,-0.92608 -1.43564,-2.92659 -2.3341,-4.4456 -0.89846,-1.519 -2.64166,-4.02968 -3.87377,-5.57929 -1.23212,-1.54961 -3.94724,-4.48132 -6.0336,-6.51492 -2.23124,-2.1748 -5.62734,-5.08097 -8.24679,-7.05708 -2.44938,-1.8478 -5.79697,-4.24222 -7.4391,-5.32092 -1.64213,-1.07871 -4.30308,-2.7184 -5.91321,-3.64375 -1.61014,-0.92535 -4.48047,-2.39711 -6.37852,-3.27058 -1.89805,-0.87347 -4.68665,-2.01881 -6.19689,-2.5452 -1.51023,-0.52639 -3.52558,-1.1463 -4.47853,-1.37758 -0.95296,-0.23129 -2.52658,-0.56289 -3.49693,-0.73689 -0.97035,-0.17401 -3.1689,-0.31048 -4.88567,-0.30327 -2.223243,0.009 -3.718383,0.17061 -5.196063,0.56045 -1.14106,0.30103 -2.79079,0.90981 -3.66606,1.35285 -0.87527,0.44303 -2.32345,1.35776 -3.21816,2.03274 -0.89472,0.67497 -2.247811,2.00483 -3.006877,2.95524 -0.759066,0.95041 -1.752287,2.28015 -2.207159,2.95498 -0.454872,0.67483 -1.384175,2.33293 -2.065117,3.68465 -0.680942,1.35172 -1.560125,3.55521 -1.953738,4.89665 -0.557761,1.90085 -0.738977,3.18958 -0.821338,5.84099 l -0.105677,3.40201 0.363352,-2.35872 c 0.199844,-1.2973 0.586138,-2.97995 0.858433,-3.73922 0.272294,-0.75927 0.929467,-1.95335 1.460384,-2.6535 0.530917,-0.70016 1.556742,-1.67985 2.27961,-2.1771 0.722868,-0.49725 2.1275,-1.15738 3.121404,-1.46696 1.293253,-0.40282 2.582863,-0.56809 4.535303,-0.58122 1.5005,-0.0101 3.63799,0.12955 4.74996,0.31031 1.11197,0.18075 3.304253,0.69294 4.871743,1.13819 1.56748,0.44525 3.94925,1.24548 5.29281,1.77828 1.34356,0.53281 3.84348,1.63207 5.55538,2.44281 1.71189,0.81073 4.46008,2.22355 6.10709,3.13958 1.64701,0.91604 4.57359,2.69788 6.5035,3.95964 1.92992,1.26176 4.67812,3.15882 6.1071,4.21569 1.42898,1.05687 3.9439,3.05469 5.58871,4.4396 1.64481,1.38491 4.27086,3.84826 5.83567,5.47409 1.56481,1.62584 3.48459,3.81257 4.26617,4.85941 0.78159,1.04683 1.79802,2.61054 2.25873,3.47491 0.46071,0.86437 1.1945,2.63014 1.63066,3.92394 0.43615,1.2938 0.97703,3.32513 1.20196,4.51407 0.22493,1.18893 0.40716,2.91362 0.40495,3.83264 -0.002,0.91901 -0.18542,2.44246 -0.40713,3.38543 -0.22171,0.94298 -0.58862,2.07419 -0.81534,2.51382 -0.22673,0.43962 -0.80691,1.25064 -1.28929,1.80225 -0.48238,0.55162 -1.36563,1.3635 -1.96277,1.80418 -0.83718,0.61782 -0.93037,0.75495 -0.40713,0.59906 0.37321,-0.1112 1.44092,-0.47719 2.37268,-0.81333 z m 10.11293,-13.04987 c 0,-0.0673 -0.25387,-1.44133 -0.56415,-3.05353 -0.31028,-1.61219 -0.99215,-4.21399 -1.51528,-5.78177 -0.52312,-1.56778 -1.46939,-3.95972 -2.10281,-5.31542 -0.63343,-1.3557 -1.74357,-3.44468 -2.46697,-4.64219 -0.72341,-1.19751 -2.03839,-3.13398 -2.92218,-4.30327 -0.8838,-1.16929 -2.33969,-2.91145 -3.23531,-3.87147 -0.89562,-0.96001 -2.80815,-2.77136 -4.25006,-4.02521 -1.44191,-1.25385 -4.02629,-3.32063 -5.74306,-4.59284 -1.71677,-1.27221 -4.58711,-3.29244 -6.37852,-4.48939 -1.79142,-1.19695 -4.41747,-2.85567 -5.83567,-3.68604 -1.4182,-0.83037 -4.10532,-2.39076 -5.97138,-3.46753 -1.86606,-1.07678 -4.51177,-2.49322 -5.87936,-3.14765 -1.3676,-0.65443 -3.2608,-1.45148 -4.20711,-1.77123 -0.94632,-0.31974 -2.61685,-0.75337 -3.7123,-0.96361 -1.16724,-0.22403 -3.58294,-0.37484 -5.835673,-0.36433 -2.11417,0.01 -4.92699,0.17179 -6.25072,0.35985 -1.94854,0.27683 -2.31688,0.27602 -1.93464,-0.004 0.25968,-0.19039 1.47845,-0.71127 2.7084,-1.15752 1.22994,-0.44625 3.1998,-1.02199 4.37747,-1.27941 1.48774,-0.3252 3.300943,-0.46271 5.941193,-0.45059 2.42618,0.0112 4.58499,0.18105 5.97138,0.46997 1.19428,0.24888 3.08748,0.75554 4.20711,1.12592 1.11963,0.37037 3.47424,1.40181 5.23245,2.29208 1.75821,0.89027 4.75069,2.58686 6.64995,3.7702 1.89926,1.18335 4.79675,3.13033 6.43888,4.32664 1.64213,1.19631 4.20711,3.19292 5.69996,4.43693 1.49284,1.244 4.42726,3.98183 6.52092,6.08406 2.09366,2.10224 4.73986,5.06901 5.88045,6.59284 1.14058,1.52382 2.59062,3.65791 3.2223,4.74242 0.63168,1.08451 1.66805,3.08326 2.30304,4.44167 0.635,1.35841 1.47343,3.43687 1.8632,4.6188 0.38976,1.18194 0.94265,3.3252 1.22866,4.76282 0.286,1.43761 0.60462,3.93042 0.70805,5.53957 0.10343,1.60915 0.11239,2.92573 0.0199,2.92573 -0.0925,0 -0.16814,-0.055 -0.16814,-0.12226 z M 57.455166,168.37269 c 0.821065,-0.15983 2.267074,-0.47643 3.213354,-0.70354 0.94628,-0.22712 3.144834,-0.90479 4.885676,-1.50595 1.740842,-0.60115 4.264444,-1.59649 5.608005,-2.21187 1.343561,-0.61537 3.702705,-1.77598 5.242542,-2.57912 1.539838,-0.80314 4.043747,-2.18881 5.564242,-3.07925 1.520496,-0.89045 2.941983,-1.72838 3.158861,-1.86207 0.326858,-0.20149 0.266595,-0.39892 -0.352223,-1.15393 -0.410601,-0.50097 -1.476483,-2.01311 -2.368625,-3.36031 -0.892143,-1.34719 -2.005927,-3.38954 -2.475077,-4.53855 l -0.852999,-2.0891 -1.651236,0.89629 c -0.908179,0.49296 -2.628371,1.41998 -3.822647,2.06005 -1.194276,0.64006 -3.759256,2.08533 -5.699955,3.21169 -1.940699,1.12637 -4.811034,2.90369 -6.378522,3.94961 -1.567487,1.04592 -3.956733,2.73118 -5.309435,3.74502 -1.352702,1.01384 -3.273575,2.70869 -4.268606,3.76633 -0.995031,1.05764 -2.056294,2.40874 -2.358361,3.00244 -0.302068,0.5937 -0.549214,1.31429 -0.549214,1.6013 0,0.28701 0.152678,0.64613 0.339283,0.79804 0.186606,0.15191 0.583567,0.33642 0.882136,0.41003 0.298569,0.0736 1.703201,0.0888 3.121404,0.0337 1.418203,-0.0551 3.250332,-0.23094 4.071397,-0.39078 z m -10.311553,-1.01092 c 0.0015,-0.41164 0.315035,-1.42137 0.696837,-2.24385 0.49401,-1.06419 1.491169,-2.28231 3.458035,-4.22428 1.520118,-1.50088 3.985269,-3.59595 5.478115,-4.6557 1.492845,-1.05976 3.691399,-2.53833 4.885676,-3.28572 1.194276,-0.74739 3.087475,-1.90896 4.207109,-2.58128 1.119634,-0.67231 3.134976,-1.83708 4.478537,-2.58837 1.34356,-0.75128 3.664257,-2.01281 5.157102,-2.80338 1.492845,-0.79057 2.755733,-1.47254 2.806416,-1.5155 0.05068,-0.043 -0.101994,-1.21138 -0.339283,-2.59651 -0.237289,-1.38512 -0.431435,-3.46056 -0.431435,-4.61208 0,-1.15152 0.179139,-3.12011 0.398086,-4.37465 0.218947,-1.25454 0.653674,-3.05959 0.96606,-4.01123 0.312386,-0.95164 0.518526,-1.77984 0.45809,-1.84044 -0.06044,-0.0606 -1.19748,0.20438 -2.526763,0.58884 -1.329282,0.38447 -3.27187,1.00631 -4.316862,1.38187 -1.044992,0.37556 -3.182475,1.24033 -4.749963,1.92171 -1.567487,0.68138 -4.193538,1.9786 -5.835668,2.88272 -1.64213,0.90412 -4.084968,2.37532 -5.428529,3.26934 -1.343561,0.89402 -3.429778,2.3961 -4.636039,3.33797 -1.206261,0.94186 -3.208891,2.64752 -4.450289,3.79033 -1.241398,1.14282 -3.285042,3.20382 -4.541431,4.57999 -1.256389,1.37618 -2.809448,3.29821 -3.451241,4.27118 -0.641793,0.97298 -1.389337,2.36568 -1.661208,3.0949 -0.42486,1.13957 -0.453019,1.56756 -0.200418,3.04623 0.161641,0.9462 0.60719,2.40656 0.990109,3.24522 0.413164,0.90492 1.353449,2.18387 2.312793,3.14581 1.074488,1.07739 2.281045,1.94025 3.598104,2.57314 1.08984,0.5237 2.13765,0.95219 2.328468,0.95219 0.196886,0 0.348087,-0.32371 0.349592,-0.74845 z m -3.179216,-2.36099 c -1.066907,-0.51269 -2.411072,-1.40467 -2.987035,-1.98219 -0.575962,-0.57752 -1.281547,-1.53587 -1.567966,-2.12966 -0.293826,-0.60914 -0.569288,-1.87846 -0.632117,-2.91277 -0.06124,-1.00824 -0.03427,-2.14111 0.05994,-2.51749 0.09421,-0.37638 0.356012,-0.68433 0.58178,-0.68433 0.225768,0 0.474826,0.16812 0.553464,0.3736 0.07864,0.20548 0.727806,0.69277 1.442597,1.08286 0.714792,0.39009 2.142857,0.90763 3.173479,1.15009 1.351467,0.31794 2.72634,0.40947 4.931789,0.32831 l 3.057932,-0.11254 -2.402759,2.33105 c -1.960975,1.90245 -2.510747,2.62066 -2.990076,3.90618 -0.323023,0.86633 -0.587316,1.69302 -0.587316,1.83709 0,0.14407 -0.156123,0.26195 -0.34694,0.26195 -0.190817,0 -1.219864,-0.41947 -2.286772,-0.93215 z M 72.20188,144.50027 c -0.113486,-0.56133 -0.198537,-2.06162 -0.189003,-3.33397 0.0096,-1.27799 0.228249,-3.10512 0.488587,-4.08241 0.259188,-0.97297 0.888809,-2.56775 1.399158,-3.54395 0.510348,-0.9762 1.491629,-2.42107 2.180625,-3.21082 0.688996,-0.78976 1.294741,-1.39379 1.3461,-1.34229 0.05136,0.0515 -0.09123,0.76153 -0.316857,1.57786 -0.225631,0.81633 -0.479608,2.9539 -0.564393,4.75016 -0.122812,2.60189 -0.06055,3.59794 0.306245,4.89889 0.25322,0.89813 0.521667,1.88615 0.59655,2.19559 0.11235,0.46427 -0.05402,0.61976 -0.951735,0.88944 -0.598337,0.17976 -1.71986,0.75326 -2.492274,1.27447 -0.772413,0.5212 -1.44765,0.94764 -1.500526,0.94764 -0.05288,0 -0.188991,-0.45928 -0.302477,-1.02061 z m 76.67375,21.51044 c 0.047,-0.33145 -0.40134,-1.64425 -0.99632,-2.91733 -0.59498,-1.27309 -1.79007,-3.26765 -2.65576,-4.43235 -0.86569,-1.1647 -3.0434,-3.58905 -4.83935,-5.38744 -1.79596,-1.79839 -4.87946,-4.56452 -6.85223,-6.14697 -1.97278,-1.58245 -5.06357,-3.88878 -6.86845,-5.12518 -1.80487,-1.2364 -4.70106,-3.09359 -6.43599,-4.1271 -1.73493,-1.0335 -3.24995,-1.87909 -3.36671,-1.87909 -0.11676,0 0.0777,0.58174 0.43213,1.29276 0.35443,0.71102 0.92676,2.08884 1.27183,3.06181 0.53644,1.51254 0.62567,2.28206 0.61539,5.30714 -0.0104,3.0613 -0.10553,3.81315 -0.70589,5.57929 -0.38163,1.12266 -0.78166,2.2509 -0.88897,2.50719 -0.15475,0.36963 0.29027,0.78321 2.15227,2.00021 1.29105,0.84383 4.14214,2.42743 6.33576,3.51912 2.19362,1.09169 6.00374,2.78283 8.46694,3.75807 2.46319,0.97525 5.82209,2.14536 7.46422,2.60025 1.64213,0.4549 3.22998,0.88336 3.52855,0.95215 0.29857,0.0688 1.15356,0.10595 1.89998,0.0826 1.17866,-0.0369 1.36837,-0.12174 1.4426,-0.64511 z m -59.053843,-12.6303 c 1.08285,-0.76666 2.09097,-1.51865 2.24025,-1.67109 0.14928,-0.15244 -0.33928,0.0491 -1.08571,0.44791 -0.74642,0.39878 -1.89342,1.15077 -2.54889,1.67109 -0.655467,0.52031 -1.05287,0.94602 -0.883116,0.94602 0.169753,0 1.194616,-0.62727 2.277466,-1.39393 z m -3.323992,-0.37511 c 0,-0.0748 -0.06107,-0.13608 -0.135714,-0.13608 -0.07464,0 -0.135713,0.0612 -0.135713,0.13608 0,0.0748 0.06107,0.13608 0.135713,0.13608 0.07464,0 0.135714,-0.0612 0.135714,-0.13608 z m -1.531553,-3.2296 c -0.501495,-1.25236 -1.145474,-3.24254 -1.431065,-4.42261 -0.285591,-1.18007 -0.593347,-2.57423 -0.683901,-3.09814 -0.12729,-0.73644 -0.0075,-0.58207 0.527757,0.6804 0.380821,0.89813 1.112722,2.20827 1.626447,2.91143 0.513724,0.70316 1.581578,1.75812 2.373008,2.34437 0.791429,0.58625 1.954859,1.3298 2.585389,1.65235 0.63054,0.32254 1.66592,0.657 2.30086,0.74323 l 1.15443,0.15679 2.0357,-1.76305 c 1.11963,-0.96967 2.62512,-2.37271 3.34552,-3.11787 l 1.309833,-1.35483 -1.472913,-1.60269 c -0.8101,-0.88148 -2.40453,-2.80117 -3.54318,-4.26597 -1.16939,-1.50435 -2.67593,-3.88499 -3.46212,-5.47087 -0.81791,-1.64988 -1.45049,-3.32927 -1.53406,-4.07271 -0.0782,-0.69581 -0.17453,-1.2651 -0.21403,-1.2651 -0.0395,0 -0.85991,0.24407 -1.82313,0.54238 -0.963212,0.29831 -2.311789,0.97151 -2.996833,1.496 -0.857871,0.6568 -1.503502,1.48331 -2.074366,2.6555 -0.505688,1.03836 -0.95133,2.54233 -1.143028,3.85754 -0.242028,1.66051 -0.23813,2.65389 0.01697,4.32481 0.182141,1.19303 0.624425,3.18387 0.982855,4.42408 0.35843,1.24022 1.135524,3.30502 1.726875,4.58846 0.591352,1.28345 1.126847,2.33353 1.189989,2.33353 0.06314,0 -0.295509,-1.02466 -0.797004,-2.27703 z m 17.752408,-8.67118 1.15668,-1.69293 -0.61383,-0.2406 c -0.33761,-0.13234 -1.46882,-0.27758 -2.51382,-0.32276 -1.044993,-0.0452 -2.113803,2.5e-4 -2.375123,0.10097 -0.39943,0.15394 -0.21214,0.47533 1.17516,2.0166 0.907673,1.00841 1.732203,1.83306 1.832283,1.83255 0.10008,-5e-4 0.70247,-0.76273 1.33865,-1.69383 z m -3.282543,-5.65391 c 0.771483,-0.2679 1.990663,-0.89272 2.709293,-1.38848 0.71862,-0.49577 1.76534,-1.3965 2.32603,-2.00162 0.5607,-0.60513 1.02097,-1.18595 1.02283,-1.29072 0.002,-0.10477 -1.33107,-0.62306 -2.96208,-1.15176 -1.631,-0.52869 -4.028773,-1.14719 -5.328373,-1.37443 -1.29959,-0.22725 -3.03466,-0.41317 -3.85571,-0.41317 h -1.4928 l 0.16095,0.99448 c 0.0885,0.54697 0.59011,1.90063 1.11464,3.00814 0.52454,1.10751 1.34843,2.56479 1.83087,3.23839 l 0.87716,1.22473 1.09725,-0.17924 c 0.60349,-0.0986 1.72846,-0.39843 2.49994,-0.66632 z m -21.040632,-24.6408 c -1.933297,-2.03039 -2.992232,-3.40008 -3.625051,-4.68886 -0.761532,-1.55092 -0.893959,-2.11256 -0.893959,-3.79143 0,-1.62395 0.09796,-2.06916 0.556625,-2.52964 0.324294,-0.32559 0.947394,-0.57333 1.492845,-0.59356 0.514922,-0.0191 1.449264,0.22806 2.076317,0.54922 0.627052,0.32116 1.565978,1.1432 2.086502,1.82675 0.520523,0.68355 1.008062,1.38838 1.083419,1.56628 0.08947,0.21122 0.251577,0.13986 0.46716,-0.20564 0.181582,-0.29101 0.82358,-1.06587 1.426664,-1.7219 0.603084,-0.65604 1.432676,-1.36711 1.843538,-1.58015 0.410862,-0.21304 1.23279,-0.38734 1.826507,-0.38734 0.842897,0 1.202775,0.15716 1.642035,0.7171 0.42339,0.5397 0.56256,1.11064 0.56256,2.30786 0,0.87492 -0.20346,2.11374 -0.45213,2.75295 -0.24867,0.6392 -0.863769,1.79386 -1.366894,2.56591 -0.503124,0.77205 -1.971358,2.45604 -3.262741,3.74221 -1.291383,1.28617 -2.434444,2.33849 -2.540136,2.33849 -0.105692,0 -1.421159,-1.29071 -2.923261,-2.86825 z"
       id="path1" /></g></svg>
